<!--?xml version="1.0" standalone="no"?-->
              <svg id="sw-js-blob-svg" viewBox="0 0 100 100" xmlns="http://www.w3.org/2000/svg" version="1.1">
                    <defs> 
                        <linearGradient id="sw-gradient" x1="0" x2="1" y1="1" y2="0">
                            <stop id="stop1" stop-color="rgba(179.081, 55, 248, 0.9)" offset="0%"></stop>
                            <stop id="stop2" stop-color="rgba(105.368, 31, 251, 0.52)" offset="100%"></stop>
                        </linearGradient>
                    </defs>
                <path fill="url(#sw-gradient)" d="M23.4,-26.7C29.7,-22.6,33.8,-14.6,36.3,-5.6C38.9,3.4,39.9,13.5,35.5,19.9C31.1,26.2,21.3,28.8,11.6,32.6C2,36.4,-7.4,41.3,-14.8,39.2C-22.1,37.2,-27.4,28,-32.5,18.9C-37.5,9.8,-42.3,0.8,-41.4,-7.8C-40.5,-16.5,-34,-24.6,-26.2,-28.5C-18.3,-32.4,-9.2,-32,-0.3,-31.6C8.5,-31.2,17.1,-30.9,23.4,-26.7Z" width="100%" height="100%" transform="translate(50 50)" stroke-width="0" style="transition: all 0.3s ease 0s;"></path>
              </svg>